<svg xmlns="http://www.w3.org/2000/svg" xmlns:xlink="http://www.w3.org/1999/xlink" width="439" zoomAndPan="magnify" viewBox="0 0 329.25 121.500001" height="162" preserveAspectRatio="xMidYMid meet" version="1.0"><defs><g/><clipPath id="a5d7563777"><path d="M 0.300781 0 L 104 0 L 104 120.253906 L 0.300781 120.253906 Z M 0.300781 0 " clip-rule="nonzero"/></clipPath><clipPath id="139f67e6d6"><path d="M 36 9 L 122.796875 9 L 122.796875 111 L 36 111 Z M 36 9 " clip-rule="nonzero"/></clipPath></defs><path fill="#80cc28" d="M 40.636719 55.203125 C 40.070312 63.398438 39.613281 63.855469 31.421875 64.421875 C 39.613281 64.988281 40.070312 65.445312 40.636719 73.640625 C 41.203125 65.445312 41.660156 64.988281 49.847656 64.421875 C 41.660156 63.855469 41.203125 63.398438 40.636719 55.203125 " fill-opacity="1" fill-rule="nonzero"/><path fill="#80cc28" d="M 48.617188 46.59375 C 48.320312 50.902344 48.078125 51.144531 43.773438 51.441406 C 48.078125 51.738281 48.320312 51.980469 48.617188 56.289062 C 48.914062 51.980469 49.152344 51.738281 53.460938 51.441406 C 49.152344 51.144531 48.914062 50.902344 48.617188 46.59375 " fill-opacity="1" fill-rule="nonzero"/><path fill="#80cc28" d="M 38.929688 38.058594 C 38.632812 42.367188 38.390625 42.605469 34.085938 42.90625 C 38.390625 43.203125 38.632812 43.445312 38.929688 47.753906 C 39.226562 43.445312 39.46875 43.203125 43.773438 42.90625 C 39.46875 42.605469 39.226562 42.367188 38.929688 38.058594 " fill-opacity="1" fill-rule="nonzero"/><path fill="#80cc28" d="M 47.976562 36.03125 C 47.84375 38 47.730469 38.109375 45.765625 38.246094 C 47.730469 38.382812 47.84375 38.492188 47.976562 40.457031 C 48.113281 38.492188 48.222656 38.382812 50.191406 38.246094 C 48.222656 38.109375 48.113281 38 47.976562 36.03125 " fill-opacity="1" fill-rule="nonzero"/><path fill="#80cc28" d="M 34.082031 50.097656 C 33.917969 52.460938 33.785156 52.59375 31.421875 52.757812 C 33.785156 52.921875 33.917969 53.054688 34.082031 55.417969 C 34.246094 53.054688 34.375 52.921875 36.738281 52.757812 C 34.375 52.59375 34.246094 52.460938 34.082031 50.097656 " fill-opacity="1" fill-rule="nonzero"/><path fill="#80cc28" d="M 56.117188 39.007812 C 55.953125 41.371094 55.820312 41.503906 53.460938 41.667969 C 55.820312 41.832031 55.953125 41.964844 56.117188 44.328125 C 56.28125 41.964844 56.414062 41.832031 58.773438 41.667969 C 56.414062 41.503906 56.28125 41.371094 56.117188 39.007812 " fill-opacity="1" fill-rule="nonzero"/><path fill="#51ade5" d="M 77.296875 65.652344 C 77.011719 61.527344 76.78125 61.296875 72.660156 61.015625 C 76.78125 60.730469 77.011719 60.5 77.296875 56.375 C 77.582031 60.5 77.8125 60.730469 81.929688 61.015625 C 77.8125 61.296875 77.582031 61.527344 77.296875 65.652344 Z M 70.179688 59.414062 C 69.769531 53.496094 69.441406 53.167969 63.527344 52.757812 C 69.441406 52.351562 69.769531 52.019531 70.179688 46.101562 C 70.585938 52.019531 70.917969 52.351562 76.828125 52.757812 C 70.917969 53.167969 70.585938 53.496094 70.179688 59.414062 Z M 62.191406 66.488281 C 61.898438 62.246094 61.664062 62.011719 57.425781 61.71875 C 61.664062 61.425781 61.898438 61.1875 62.191406 56.949219 C 62.484375 61.1875 62.722656 61.425781 66.960938 61.71875 C 62.722656 62.011719 62.484375 62.246094 62.191406 66.488281 Z M 64.519531 43.394531 C 64.664062 45.464844 64.78125 45.582031 66.847656 45.726562 C 64.78125 45.867188 64.664062 45.984375 64.519531 48.054688 C 64.378906 45.984375 64.261719 45.867188 62.191406 45.726562 C 64.261719 45.582031 64.378906 45.464844 64.519531 43.394531 Z M 68.4375 38.246094 C 68.578125 40.316406 68.695312 40.433594 70.765625 40.574219 C 68.695312 40.71875 68.578125 40.835938 68.4375 42.90625 C 68.292969 40.835938 68.179688 40.71875 66.109375 40.574219 C 68.179688 40.433594 68.292969 40.316406 68.4375 38.246094 Z M 87.75 67.984375 L 69.007812 23.902344 L 50.265625 67.984375 C 44.546875 81.429688 54.40625 96.351562 69.007812 96.351562 C 83.609375 96.351562 93.464844 81.429688 87.75 67.984375 " fill-opacity="1" fill-rule="nonzero"/><g clip-path="url(#a5d7563777)"><path fill="#80cc28" d="M 60.40625 120.253906 C 77.488281 120.253906 92.90625 113.117188 103.847656 101.664062 C 94.648438 109.144531 82.921875 113.632812 70.148438 113.632812 C 40.621094 113.632812 16.683594 89.675781 16.683594 60.128906 C 16.683594 30.578125 40.621094 6.621094 70.148438 6.621094 C 82.921875 6.621094 94.648438 11.109375 103.847656 18.589844 C 92.90625 7.136719 77.488281 0 60.40625 0 C 27.222656 0 0.324219 26.921875 0.324219 60.128906 C 0.324219 93.335938 27.222656 120.253906 60.40625 120.253906 " fill-opacity="1" fill-rule="nonzero"/></g><g clip-path="url(#139f67e6d6)"><path fill="#51ade5" d="M 72.679688 9.984375 C 58.433594 9.984375 45.578125 15.933594 36.453125 25.488281 C 44.121094 19.25 53.902344 15.507812 64.554688 15.507812 C 89.179688 15.507812 109.144531 35.484375 109.144531 60.128906 C 109.144531 84.769531 89.179688 104.746094 64.554688 104.746094 C 53.902344 104.746094 44.121094 101.007812 36.453125 94.769531 C 45.578125 104.320312 58.433594 110.273438 72.679688 110.273438 C 100.355469 110.273438 122.789062 87.820312 122.789062 60.128906 C 122.789062 32.433594 100.355469 9.984375 72.679688 9.984375 " fill-opacity="1" fill-rule="nonzero"/></g><g fill="#000000" fill-opacity="1"><g transform="translate(130.006496, 41.867941)"><g><path d="M 8.71875 0.328125 C 7.175781 0.328125 5.6875 0.117188 4.25 -0.296875 C 2.8125 -0.710938 1.65625 -1.253906 0.78125 -1.921875 L 2.3125 -5.328125 C 3.144531 -4.710938 4.140625 -4.21875 5.296875 -3.84375 C 6.453125 -3.476562 7.601562 -3.296875 8.75 -3.296875 C 10.03125 -3.296875 10.976562 -3.484375 11.59375 -3.859375 C 12.207031 -4.242188 12.515625 -4.75 12.515625 -5.375 C 12.515625 -5.84375 12.332031 -6.226562 11.96875 -6.53125 C 11.601562 -6.84375 11.140625 -7.085938 10.578125 -7.265625 C 10.015625 -7.453125 9.25 -7.660156 8.28125 -7.890625 C 6.789062 -8.242188 5.570312 -8.597656 4.625 -8.953125 C 3.675781 -9.304688 2.863281 -9.867188 2.1875 -10.640625 C 1.507812 -11.421875 1.171875 -12.460938 1.171875 -13.765625 C 1.171875 -14.898438 1.476562 -15.925781 2.09375 -16.84375 C 2.707031 -17.769531 3.628906 -18.5 4.859375 -19.03125 C 6.097656 -19.570312 7.609375 -19.84375 9.390625 -19.84375 C 10.640625 -19.84375 11.859375 -19.691406 13.046875 -19.390625 C 14.234375 -19.097656 15.273438 -18.675781 16.171875 -18.125 L 14.78125 -14.6875 C 12.96875 -15.707031 11.160156 -16.21875 9.359375 -16.21875 C 8.097656 -16.21875 7.164062 -16.015625 6.5625 -15.609375 C 5.957031 -15.203125 5.65625 -14.664062 5.65625 -14 C 5.65625 -13.320312 6.003906 -12.820312 6.703125 -12.5 C 7.398438 -12.175781 8.460938 -11.859375 9.890625 -11.546875 C 11.378906 -11.191406 12.597656 -10.835938 13.546875 -10.484375 C 14.492188 -10.128906 15.304688 -9.570312 15.984375 -8.8125 C 16.660156 -8.050781 17 -7.019531 17 -5.71875 C 17 -4.601562 16.6875 -3.582031 16.0625 -2.65625 C 15.445312 -1.738281 14.515625 -1.007812 13.265625 -0.46875 C 12.023438 0.0625 10.507812 0.328125 8.71875 0.328125 Z M 8.71875 0.328125 "/></g></g></g><g fill="#378abd" fill-opacity="1"><g transform="translate(147.804347, 41.867941)"><g><path d="M 10.984375 0.328125 C 8.191406 0.328125 6.019531 -0.441406 4.46875 -1.984375 C 2.914062 -3.523438 2.140625 -5.722656 2.140625 -8.578125 L 2.140625 -19.515625 L 6.65625 -19.515625 L 6.65625 -8.75 C 6.65625 -5.257812 8.109375 -3.515625 11.015625 -3.515625 C 12.421875 -3.515625 13.492188 -3.9375 14.234375 -4.78125 C 14.984375 -5.625 15.359375 -6.945312 15.359375 -8.75 L 15.359375 -19.515625 L 19.8125 -19.515625 L 19.8125 -8.578125 C 19.8125 -5.722656 19.035156 -3.523438 17.484375 -1.984375 C 15.929688 -0.441406 13.765625 0.328125 10.984375 0.328125 Z M 10.984375 0.328125 "/></g></g></g><g fill="#378abd" fill-opacity="1"><g transform="translate(169.774925, 41.867941)"><g><path d="M 10.765625 -19.515625 C 12.492188 -19.515625 13.992188 -19.222656 15.265625 -18.640625 C 16.535156 -18.066406 17.515625 -17.25 18.203125 -16.1875 C 18.890625 -15.132812 19.234375 -13.882812 19.234375 -12.4375 C 19.234375 -11 18.890625 -9.742188 18.203125 -8.671875 C 17.515625 -7.609375 16.535156 -6.789062 15.265625 -6.21875 C 13.992188 -5.65625 12.492188 -5.375 10.765625 -5.375 L 6.828125 -5.375 L 6.828125 0 L 2.3125 0 L 2.3125 -19.515625 Z M 10.515625 -9.0625 C 11.867188 -9.0625 12.894531 -9.351562 13.59375 -9.9375 C 14.300781 -10.519531 14.65625 -11.351562 14.65625 -12.4375 C 14.65625 -13.53125 14.300781 -14.367188 13.59375 -14.953125 C 12.894531 -15.535156 11.867188 -15.828125 10.515625 -15.828125 L 6.828125 -15.828125 L 6.828125 -9.0625 Z M 10.515625 -9.0625 "/></g></g></g><g fill="#378abd" fill-opacity="1"><g transform="translate(190.184146, 41.867941)"><g><path d="M 17.421875 -3.625 L 17.421875 0 L 2.3125 0 L 2.3125 -19.515625 L 17.0625 -19.515625 L 17.0625 -15.890625 L 6.796875 -15.890625 L 6.796875 -11.65625 L 15.859375 -11.65625 L 15.859375 -8.140625 L 6.796875 -8.140625 L 6.796875 -3.625 Z M 17.421875 -3.625 "/></g></g></g><g fill="#378abd" fill-opacity="1"><g transform="translate(208.892598, 41.867941)"><g><path d="M 14.75 0 L 10.984375 -5.4375 L 6.828125 -5.4375 L 6.828125 0 L 2.3125 0 L 2.3125 -19.515625 L 10.765625 -19.515625 C 12.492188 -19.515625 13.992188 -19.222656 15.265625 -18.640625 C 16.535156 -18.066406 17.515625 -17.25 18.203125 -16.1875 C 18.890625 -15.132812 19.234375 -13.882812 19.234375 -12.4375 C 19.234375 -10.988281 18.882812 -9.738281 18.1875 -8.6875 C 17.488281 -7.632812 16.5 -6.828125 15.21875 -6.265625 L 19.59375 0 Z M 14.65625 -12.4375 C 14.65625 -13.53125 14.300781 -14.367188 13.59375 -14.953125 C 12.894531 -15.535156 11.867188 -15.828125 10.515625 -15.828125 L 6.828125 -15.828125 L 6.828125 -9.03125 L 10.515625 -9.03125 C 11.867188 -9.03125 12.894531 -9.328125 13.59375 -9.921875 C 14.300781 -10.515625 14.65625 -11.351562 14.65625 -12.4375 Z M 14.65625 -12.4375 "/></g></g></g><g fill="#000000" fill-opacity="1"><g transform="translate(130.006496, 69.504211)"><g><path d="M 14.75 0 L 10.984375 -5.4375 L 6.828125 -5.4375 L 6.828125 0 L 2.3125 0 L 2.3125 -19.515625 L 10.765625 -19.515625 C 12.492188 -19.515625 13.992188 -19.222656 15.265625 -18.640625 C 16.535156 -18.066406 17.515625 -17.25 18.203125 -16.1875 C 18.890625 -15.132812 19.234375 -13.882812 19.234375 -12.4375 C 19.234375 -10.988281 18.882812 -9.738281 18.1875 -8.6875 C 17.488281 -7.632812 16.5 -6.828125 15.21875 -6.265625 L 19.59375 0 Z M 14.65625 -12.4375 C 14.65625 -13.53125 14.300781 -14.367188 13.59375 -14.953125 C 12.894531 -15.535156 11.867188 -15.828125 10.515625 -15.828125 L 6.828125 -15.828125 L 6.828125 -9.03125 L 10.515625 -9.03125 C 11.867188 -9.03125 12.894531 -9.328125 13.59375 -9.921875 C 14.300781 -10.515625 14.65625 -11.351562 14.65625 -12.4375 Z M 14.65625 -12.4375 "/></g></g></g><g fill="#378abd" fill-opacity="1"><g transform="translate(150.500283, 69.504211)"><g><path d="M 17.421875 -3.625 L 17.421875 0 L 2.3125 0 L 2.3125 -19.515625 L 17.0625 -19.515625 L 17.0625 -15.890625 L 6.796875 -15.890625 L 6.796875 -11.65625 L 15.859375 -11.65625 L 15.859375 -8.140625 L 6.796875 -8.140625 L 6.796875 -3.625 Z M 17.421875 -3.625 "/></g></g></g><g fill="#378abd" fill-opacity="1"><g transform="translate(169.208735, 69.504211)"><g><path d="M 2.3125 -19.515625 L 6.828125 -19.515625 L 6.828125 0 L 2.3125 0 Z M 2.3125 -19.515625 "/></g></g></g><g fill="#378abd" fill-opacity="1"><g transform="translate(178.353851, 69.504211)"><g><path d="M 20.203125 -19.515625 L 20.203125 0 L 16.5 0 L 6.78125 -11.84375 L 6.78125 0 L 2.3125 0 L 2.3125 -19.515625 L 6.046875 -19.515625 L 15.75 -7.671875 L 15.75 -19.515625 Z M 20.203125 -19.515625 "/></g></g></g><g fill="#378abd" fill-opacity="1"><g transform="translate(200.88206, 69.504211)"><g><path d="M 2.3125 -19.515625 L 6.828125 -19.515625 L 6.828125 0 L 2.3125 0 Z M 2.3125 -19.515625 "/></g></g></g><g fill="#378abd" fill-opacity="1"><g transform="translate(210.027176, 69.504211)"><g><path d="M 15.5 -10.0625 L 19.625 -10.0625 L 19.625 -2.140625 C 18.5625 -1.347656 17.332031 -0.738281 15.9375 -0.3125 C 14.550781 0.113281 13.148438 0.328125 11.734375 0.328125 C 9.710938 0.328125 7.890625 -0.101562 6.265625 -0.96875 C 4.648438 -1.832031 3.382812 -3.03125 2.46875 -4.5625 C 1.550781 -6.09375 1.09375 -7.820312 1.09375 -9.75 C 1.09375 -11.6875 1.550781 -13.421875 2.46875 -14.953125 C 3.382812 -16.484375 4.660156 -17.679688 6.296875 -18.546875 C 7.929688 -19.410156 9.769531 -19.84375 11.8125 -19.84375 C 13.53125 -19.84375 15.082031 -19.554688 16.46875 -18.984375 C 17.863281 -18.410156 19.035156 -17.570312 19.984375 -16.46875 L 17.09375 -13.796875 C 15.695312 -15.265625 14.015625 -16 12.046875 -16 C 10.796875 -16 9.6875 -15.738281 8.71875 -15.21875 C 7.757812 -14.695312 7.007812 -13.960938 6.46875 -13.015625 C 5.925781 -12.066406 5.65625 -10.976562 5.65625 -9.75 C 5.65625 -8.539062 5.925781 -7.460938 6.46875 -6.515625 C 7.007812 -5.566406 7.753906 -4.828125 8.703125 -4.296875 C 9.660156 -3.773438 10.753906 -3.515625 11.984375 -3.515625 C 13.285156 -3.515625 14.457031 -3.789062 15.5 -4.34375 Z M 15.5 -10.0625 "/></g></g></g><g fill="#378abd" fill-opacity="1"><g transform="translate(231.523768, 69.504211)"><g><path d="M 10.984375 0.328125 C 8.191406 0.328125 6.019531 -0.441406 4.46875 -1.984375 C 2.914062 -3.523438 2.140625 -5.722656 2.140625 -8.578125 L 2.140625 -19.515625 L 6.65625 -19.515625 L 6.65625 -8.75 C 6.65625 -5.257812 8.109375 -3.515625 11.015625 -3.515625 C 12.421875 -3.515625 13.492188 -3.9375 14.234375 -4.78125 C 14.984375 -5.625 15.359375 -6.945312 15.359375 -8.75 L 15.359375 -19.515625 L 19.8125 -19.515625 L 19.8125 -8.578125 C 19.8125 -5.722656 19.035156 -3.523438 17.484375 -1.984375 C 15.929688 -0.441406 13.765625 0.328125 10.984375 0.328125 Z M 10.984375 0.328125 "/></g></g></g><g fill="#378abd" fill-opacity="1"><g transform="translate(253.494347, 69.504211)"><g><path d="M 20.203125 -19.515625 L 20.203125 0 L 16.5 0 L 6.78125 -11.84375 L 6.78125 0 L 2.3125 0 L 2.3125 -19.515625 L 6.046875 -19.515625 L 15.75 -7.671875 L 15.75 -19.515625 Z M 20.203125 -19.515625 "/></g></g></g><g fill="#378abd" fill-opacity="1"><g transform="translate(276.022556, 69.504211)"><g><path d="M 15.5 -10.0625 L 19.625 -10.0625 L 19.625 -2.140625 C 18.5625 -1.347656 17.332031 -0.738281 15.9375 -0.3125 C 14.550781 0.113281 13.148438 0.328125 11.734375 0.328125 C 9.710938 0.328125 7.890625 -0.101562 6.265625 -0.96875 C 4.648438 -1.832031 3.382812 -3.03125 2.46875 -4.5625 C 1.550781 -6.09375 1.09375 -7.820312 1.09375 -9.75 C 1.09375 -11.6875 1.550781 -13.421875 2.46875 -14.953125 C 3.382812 -16.484375 4.660156 -17.679688 6.296875 -18.546875 C 7.929688 -19.410156 9.769531 -19.84375 11.8125 -19.84375 C 13.53125 -19.84375 15.082031 -19.554688 16.46875 -18.984375 C 17.863281 -18.410156 19.035156 -17.570312 19.984375 -16.46875 L 17.09375 -13.796875 C 15.695312 -15.265625 14.015625 -16 12.046875 -16 C 10.796875 -16 9.6875 -15.738281 8.71875 -15.21875 C 7.757812 -14.695312 7.007812 -13.960938 6.46875 -13.015625 C 5.925781 -12.066406 5.65625 -10.976562 5.65625 -9.75 C 5.65625 -8.539062 5.925781 -7.460938 6.46875 -6.515625 C 7.007812 -5.566406 7.753906 -4.828125 8.703125 -4.296875 C 9.660156 -3.773438 10.753906 -3.515625 11.984375 -3.515625 C 13.285156 -3.515625 14.457031 -3.789062 15.5 -4.34375 Z M 15.5 -10.0625 "/></g></g></g><g fill="#378abd" fill-opacity="1"><g transform="translate(297.519148, 69.504211)"><g><path d="M 8.71875 0.328125 C 7.175781 0.328125 5.6875 0.117188 4.25 -0.296875 C 2.8125 -0.710938 1.65625 -1.253906 0.78125 -1.921875 L 2.3125 -5.328125 C 3.144531 -4.710938 4.140625 -4.21875 5.296875 -3.84375 C 6.453125 -3.476562 7.601562 -3.296875 8.75 -3.296875 C 10.03125 -3.296875 10.976562 -3.484375 11.59375 -3.859375 C 12.207031 -4.242188 12.515625 -4.75 12.515625 -5.375 C 12.515625 -5.84375 12.332031 -6.226562 11.96875 -6.53125 C 11.601562 -6.84375 11.140625 -7.085938 10.578125 -7.265625 C 10.015625 -7.453125 9.25 -7.660156 8.28125 -7.890625 C 6.789062 -8.242188 5.570312 -8.597656 4.625 -8.953125 C 3.675781 -9.304688 2.863281 -9.867188 2.1875 -10.640625 C 1.507812 -11.421875 1.171875 -12.460938 1.171875 -13.765625 C 1.171875 -14.898438 1.476562 -15.925781 2.09375 -16.84375 C 2.707031 -17.769531 3.628906 -18.5 4.859375 -19.03125 C 6.097656 -19.570312 7.609375 -19.84375 9.390625 -19.84375 C 10.640625 -19.84375 11.859375 -19.691406 13.046875 -19.390625 C 14.234375 -19.097656 15.273438 -18.675781 16.171875 -18.125 L 14.78125 -14.6875 C 12.96875 -15.707031 11.160156 -16.21875 9.359375 -16.21875 C 8.097656 -16.21875 7.164062 -16.015625 6.5625 -15.609375 C 5.957031 -15.203125 5.65625 -14.664062 5.65625 -14 C 5.65625 -13.320312 6.003906 -12.820312 6.703125 -12.5 C 7.398438 -12.175781 8.460938 -11.859375 9.890625 -11.546875 C 11.378906 -11.191406 12.597656 -10.835938 13.546875 -10.484375 C 14.492188 -10.128906 15.304688 -9.570312 15.984375 -8.8125 C 16.660156 -8.050781 17 -7.019531 17 -5.71875 C 17 -4.601562 16.6875 -3.582031 16.0625 -2.65625 C 15.445312 -1.738281 14.515625 -1.007812 13.265625 -0.46875 C 12.023438 0.0625 10.507812 0.328125 8.71875 0.328125 Z M 8.71875 0.328125 "/></g></g></g><g fill="#000000" fill-opacity="1"><g transform="translate(130.006496, 97.140481)"><g><path d="M 8.71875 0.328125 C 7.175781 0.328125 5.6875 0.117188 4.25 -0.296875 C 2.8125 -0.710938 1.65625 -1.253906 0.78125 -1.921875 L 2.3125 -5.328125 C 3.144531 -4.710938 4.140625 -4.21875 5.296875 -3.84375 C 6.453125 -3.476562 7.601562 -3.296875 8.75 -3.296875 C 10.03125 -3.296875 10.976562 -3.484375 11.59375 -3.859375 C 12.207031 -4.242188 12.515625 -4.75 12.515625 -5.375 C 12.515625 -5.84375 12.332031 -6.226562 11.96875 -6.53125 C 11.601562 -6.84375 11.140625 -7.085938 10.578125 -7.265625 C 10.015625 -7.453125 9.25 -7.660156 8.28125 -7.890625 C 6.789062 -8.242188 5.570312 -8.597656 4.625 -8.953125 C 3.675781 -9.304688 2.863281 -9.867188 2.1875 -10.640625 C 1.507812 -11.421875 1.171875 -12.460938 1.171875 -13.765625 C 1.171875 -14.898438 1.476562 -15.925781 2.09375 -16.84375 C 2.707031 -17.769531 3.628906 -18.5 4.859375 -19.03125 C 6.097656 -19.570312 7.609375 -19.84375 9.390625 -19.84375 C 10.640625 -19.84375 11.859375 -19.691406 13.046875 -19.390625 C 14.234375 -19.097656 15.273438 -18.675781 16.171875 -18.125 L 14.78125 -14.6875 C 12.96875 -15.707031 11.160156 -16.21875 9.359375 -16.21875 C 8.097656 -16.21875 7.164062 -16.015625 6.5625 -15.609375 C 5.957031 -15.203125 5.65625 -14.664062 5.65625 -14 C 5.65625 -13.320312 6.003906 -12.820312 6.703125 -12.5 C 7.398438 -12.175781 8.460938 -11.859375 9.890625 -11.546875 C 11.378906 -11.191406 12.597656 -10.835938 13.546875 -10.484375 C 14.492188 -10.128906 15.304688 -9.570312 15.984375 -8.8125 C 16.660156 -8.050781 17 -7.019531 17 -5.71875 C 17 -4.601562 16.6875 -3.582031 16.0625 -2.65625 C 15.445312 -1.738281 14.515625 -1.007812 13.265625 -0.46875 C 12.023438 0.0625 10.507812 0.328125 8.71875 0.328125 Z M 8.71875 0.328125 "/></g></g></g><g fill="#378abd" fill-opacity="1"><g transform="translate(147.804347, 97.140481)"><g><path d="M 17.421875 -3.625 L 17.421875 0 L 2.3125 0 L 2.3125 -19.515625 L 17.0625 -19.515625 L 17.0625 -15.890625 L 6.796875 -15.890625 L 6.796875 -11.65625 L 15.859375 -11.65625 L 15.859375 -8.140625 L 6.796875 -8.140625 L 6.796875 -3.625 Z M 17.421875 -3.625 "/></g></g></g><g fill="#378abd" fill-opacity="1"><g transform="translate(166.512798, 97.140481)"><g><path d="M 14.75 0 L 10.984375 -5.4375 L 6.828125 -5.4375 L 6.828125 0 L 2.3125 0 L 2.3125 -19.515625 L 10.765625 -19.515625 C 12.492188 -19.515625 13.992188 -19.222656 15.265625 -18.640625 C 16.535156 -18.066406 17.515625 -17.25 18.203125 -16.1875 C 18.890625 -15.132812 19.234375 -13.882812 19.234375 -12.4375 C 19.234375 -10.988281 18.882812 -9.738281 18.1875 -8.6875 C 17.488281 -7.632812 16.5 -6.828125 15.21875 -6.265625 L 19.59375 0 Z M 14.65625 -12.4375 C 14.65625 -13.53125 14.300781 -14.367188 13.59375 -14.953125 C 12.894531 -15.535156 11.867188 -15.828125 10.515625 -15.828125 L 6.828125 -15.828125 L 6.828125 -9.03125 L 10.515625 -9.03125 C 11.867188 -9.03125 12.894531 -9.328125 13.59375 -9.921875 C 14.300781 -10.515625 14.65625 -11.351562 14.65625 -12.4375 Z M 14.65625 -12.4375 "/></g></g></g><g fill="#378abd" fill-opacity="1"><g transform="translate(187.005663, 97.140481)"><g><path d="M 21.078125 -19.515625 L 12.625 0 L 8.171875 0 L -0.25 -19.515625 L 4.625 -19.515625 L 10.5625 -5.578125 L 16.578125 -19.515625 Z M 21.078125 -19.515625 "/></g></g></g><g fill="#378abd" fill-opacity="1"><g transform="translate(207.805215, 97.140481)"><g><path d="M 2.3125 -19.515625 L 6.828125 -19.515625 L 6.828125 0 L 2.3125 0 Z M 2.3125 -19.515625 "/></g></g></g><g fill="#378abd" fill-opacity="1"><g transform="translate(216.950331, 97.140481)"><g><path d="M 11.65625 0.328125 C 9.664062 0.328125 7.863281 -0.101562 6.25 -0.96875 C 4.644531 -1.832031 3.382812 -3.03125 2.46875 -4.5625 C 1.550781 -6.09375 1.09375 -7.820312 1.09375 -9.75 C 1.09375 -11.6875 1.550781 -13.421875 2.46875 -14.953125 C 3.382812 -16.484375 4.644531 -17.679688 6.25 -18.546875 C 7.863281 -19.410156 9.671875 -19.84375 11.671875 -19.84375 C 13.367188 -19.84375 14.898438 -19.546875 16.265625 -18.953125 C 17.628906 -18.359375 18.773438 -17.503906 19.703125 -16.390625 L 16.8125 -13.71875 C 15.488281 -15.238281 13.851562 -16 11.90625 -16 C 10.695312 -16 9.617188 -15.734375 8.671875 -15.203125 C 7.722656 -14.671875 6.984375 -13.929688 6.453125 -12.984375 C 5.921875 -12.035156 5.65625 -10.957031 5.65625 -9.75 C 5.65625 -8.539062 5.921875 -7.460938 6.453125 -6.515625 C 6.984375 -5.566406 7.722656 -4.828125 8.671875 -4.296875 C 9.617188 -3.773438 10.695312 -3.515625 11.90625 -3.515625 C 13.851562 -3.515625 15.488281 -4.285156 16.8125 -5.828125 L 19.703125 -3.15625 C 18.773438 -2.019531 17.625 -1.15625 16.25 -0.5625 C 14.875 0.03125 13.34375 0.328125 11.65625 0.328125 Z M 11.65625 0.328125 "/></g></g></g><g fill="#378abd" fill-opacity="1"><g transform="translate(237.387429, 97.140481)"><g><path d="M 17.421875 -3.625 L 17.421875 0 L 2.3125 0 L 2.3125 -19.515625 L 17.0625 -19.515625 L 17.0625 -15.890625 L 6.796875 -15.890625 L 6.796875 -11.65625 L 15.859375 -11.65625 L 15.859375 -8.140625 L 6.796875 -8.140625 L 6.796875 -3.625 Z M 17.421875 -3.625 "/></g></g></g></svg>