<svg xmlns="http://www.w3.org/2000/svg" xmlns:xlink="http://www.w3.org/1999/xlink" width="446" zoomAndPan="magnify" viewBox="0 0 334.5 215.249992" height="287" preserveAspectRatio="xMidYMid meet" version="1.0"><defs><g/><clipPath id="09fb99b738"><path d="M 0.332031 0 L 333.671875 0 L 333.671875 214.503906 L 0.332031 214.503906 Z M 0.332031 0 " clip-rule="nonzero"/></clipPath><clipPath id="962fdde679"><path d="M 0.332031 0 L 325.039062 0 L 325.039062 213.949219 L 0.332031 213.949219 Z M 0.332031 0 " clip-rule="nonzero"/></clipPath><clipPath id="0f6b023ca7"><path d="M 5.347656 47.59375 L 109 47.59375 L 109 167.921875 L 5.347656 167.921875 Z M 5.347656 47.59375 " clip-rule="nonzero"/></clipPath><clipPath id="47f43a80bf"><path d="M 41 57 L 127.917969 57 L 127.917969 158 L 41 158 Z M 41 57 " clip-rule="nonzero"/></clipPath></defs><g clip-path="url(#09fb99b738)"><path fill="#ffffff" d="M 0.332031 0 L 333.671875 0 L 333.671875 214.503906 L 0.332031 214.503906 Z M 0.332031 0 " fill-opacity="1" fill-rule="nonzero"/></g><g clip-path="url(#962fdde679)"><path fill="#ffffff" d="M 0.332031 0 L 325.433594 0 L 325.433594 213.949219 L 0.332031 213.949219 Z M 0.332031 0 " fill-opacity="1" fill-rule="nonzero"/></g><path fill="#80cc28" d="M 45.707031 102.832031 C 45.140625 111.03125 44.683594 111.488281 36.488281 112.054688 C 44.683594 112.621094 45.140625 113.082031 45.707031 121.28125 C 46.273438 113.082031 46.730469 112.621094 54.925781 112.054688 C 46.730469 111.488281 46.273438 111.03125 45.707031 102.832031 " fill-opacity="1" fill-rule="nonzero"/><path fill="#80cc28" d="M 53.691406 94.214844 C 53.394531 98.527344 53.152344 98.769531 48.84375 99.066406 C 53.152344 99.363281 53.394531 99.605469 53.691406 103.917969 C 53.988281 99.605469 54.230469 99.363281 58.539062 99.066406 C 54.230469 98.769531 53.988281 98.527344 53.691406 94.214844 " fill-opacity="1" fill-rule="nonzero"/><path fill="#80cc28" d="M 43.996094 85.675781 C 43.699219 89.988281 43.460938 90.226562 39.152344 90.523438 C 43.460938 90.824219 43.699219 91.0625 43.996094 95.375 C 44.296875 91.0625 44.535156 90.824219 48.84375 90.523438 C 44.535156 90.226562 44.296875 89.988281 43.996094 85.675781 " fill-opacity="1" fill-rule="nonzero"/><path fill="#80cc28" d="M 53.050781 83.648438 C 52.917969 85.617188 52.808594 85.726562 50.839844 85.863281 C 52.808594 86 52.917969 86.109375 53.050781 88.078125 C 53.1875 86.109375 53.296875 86 55.265625 85.863281 C 53.296875 85.726562 53.1875 85.617188 53.050781 83.648438 " fill-opacity="1" fill-rule="nonzero"/><path fill="#80cc28" d="M 39.148438 97.722656 C 38.984375 100.089844 38.851562 100.21875 36.488281 100.382812 C 38.851562 100.546875 38.984375 100.679688 39.148438 103.046875 C 39.3125 100.679688 39.441406 100.546875 41.808594 100.382812 C 39.441406 100.21875 39.3125 100.089844 39.148438 97.722656 " fill-opacity="1" fill-rule="nonzero"/><path fill="#80cc28" d="M 61.195312 86.625 C 61.035156 88.992188 60.902344 89.125 58.539062 89.289062 C 60.902344 89.449219 61.035156 89.582031 61.195312 91.949219 C 61.359375 89.582031 61.492188 89.449219 63.855469 89.289062 C 61.492188 89.125 61.359375 88.992188 61.195312 86.625 " fill-opacity="1" fill-rule="nonzero"/><path fill="#51ade5" d="M 82.390625 113.285156 C 82.105469 109.160156 81.875 108.929688 77.75 108.644531 C 81.875 108.359375 82.105469 108.128906 82.390625 104.003906 C 82.671875 108.128906 82.902344 108.359375 87.027344 108.644531 C 82.902344 108.929688 82.671875 109.160156 82.390625 113.285156 Z M 75.265625 107.042969 C 74.859375 101.125 74.527344 100.792969 68.613281 100.382812 C 74.527344 99.976562 74.859375 99.644531 75.265625 93.726562 C 75.675781 99.644531 76.007812 99.976562 81.921875 100.382812 C 76.007812 100.792969 75.675781 101.125 75.265625 107.042969 Z M 67.277344 114.121094 C 66.984375 109.878906 66.746094 109.644531 62.507812 109.347656 C 66.746094 109.058594 66.984375 108.820312 67.277344 104.578125 C 67.570312 108.820312 67.804688 109.058594 72.046875 109.347656 C 67.804688 109.644531 67.570312 109.878906 67.277344 114.121094 Z M 69.605469 91.015625 C 69.75 93.085938 69.867188 93.203125 71.9375 93.347656 C 69.867188 93.488281 69.75 93.605469 69.605469 95.675781 C 69.464844 93.605469 69.347656 93.488281 67.277344 93.347656 C 69.347656 93.203125 69.464844 93.085938 69.605469 91.015625 Z M 73.523438 85.863281 C 73.667969 87.933594 73.785156 88.050781 75.855469 88.195312 C 73.785156 88.335938 73.667969 88.453125 73.523438 90.523438 C 73.382812 88.453125 73.265625 88.335938 71.195312 88.195312 C 73.265625 88.050781 73.382812 87.933594 73.523438 85.863281 Z M 92.851562 115.621094 L 74.09375 71.511719 L 55.339844 115.621094 C 49.621094 129.074219 59.484375 144.003906 74.09375 144.003906 C 88.707031 144.003906 98.570312 129.074219 92.851562 115.621094 " fill-opacity="1" fill-rule="nonzero"/><g clip-path="url(#0f6b023ca7)"><path fill="#80cc28" d="M 65.488281 167.921875 C 82.582031 167.921875 98.011719 160.78125 108.957031 149.320312 C 99.753906 156.808594 88.019531 161.296875 75.238281 161.296875 C 45.691406 161.296875 21.738281 137.328125 21.738281 107.757812 C 21.738281 78.191406 45.691406 54.21875 75.238281 54.21875 C 88.019531 54.21875 99.753906 58.710938 108.957031 66.195312 C 98.011719 54.734375 82.582031 47.59375 65.488281 47.59375 C 32.285156 47.59375 5.367188 74.53125 5.367188 107.757812 C 5.367188 140.984375 32.285156 167.921875 65.488281 167.921875 " fill-opacity="1" fill-rule="nonzero"/></g><g clip-path="url(#47f43a80bf)"><path fill="#51ade5" d="M 77.769531 57.582031 C 63.515625 57.582031 50.652344 63.539062 41.519531 73.097656 C 49.195312 66.855469 58.980469 63.109375 69.640625 63.109375 C 94.28125 63.109375 114.257812 83.101562 114.257812 107.757812 C 114.257812 132.417969 94.28125 152.40625 69.640625 152.40625 C 58.980469 152.40625 49.195312 148.664062 41.519531 142.421875 C 50.652344 151.980469 63.515625 157.933594 77.769531 157.933594 C 105.460938 157.933594 127.910156 135.46875 127.910156 107.757812 C 127.910156 80.046875 105.460938 57.582031 77.769531 57.582031 " fill-opacity="1" fill-rule="nonzero"/></g><g fill="#000000" fill-opacity="1"><g transform="translate(135.132972, 89.487339)"><g><path d="M 8.734375 0.328125 C 7.191406 0.328125 5.695312 0.117188 4.25 -0.296875 C 2.8125 -0.710938 1.65625 -1.253906 0.78125 -1.921875 L 2.3125 -5.328125 C 3.15625 -4.710938 4.148438 -4.21875 5.296875 -3.84375 C 6.453125 -3.476562 7.609375 -3.296875 8.765625 -3.296875 C 10.046875 -3.296875 10.992188 -3.484375 11.609375 -3.859375 C 12.222656 -4.242188 12.53125 -4.753906 12.53125 -5.390625 C 12.53125 -5.847656 12.347656 -6.226562 11.984375 -6.53125 C 11.617188 -6.84375 11.148438 -7.09375 10.578125 -7.28125 C 10.015625 -7.46875 9.25 -7.671875 8.28125 -7.890625 C 6.800781 -8.242188 5.582031 -8.597656 4.625 -8.953125 C 3.675781 -9.304688 2.863281 -9.875 2.1875 -10.65625 C 1.507812 -11.4375 1.171875 -12.476562 1.171875 -13.78125 C 1.171875 -14.914062 1.476562 -15.941406 2.09375 -16.859375 C 2.707031 -17.785156 3.628906 -18.519531 4.859375 -19.0625 C 6.097656 -19.601562 7.613281 -19.875 9.40625 -19.875 C 10.65625 -19.875 11.875 -19.722656 13.0625 -19.421875 C 14.25 -19.117188 15.289062 -18.691406 16.1875 -18.140625 L 14.796875 -14.703125 C 12.984375 -15.722656 11.175781 -16.234375 9.375 -16.234375 C 8.113281 -16.234375 7.179688 -16.03125 6.578125 -15.625 C 5.972656 -15.21875 5.671875 -14.679688 5.671875 -14.015625 C 5.671875 -13.335938 6.019531 -12.835938 6.71875 -12.515625 C 7.414062 -12.191406 8.476562 -11.867188 9.90625 -11.546875 C 11.394531 -11.191406 12.613281 -10.835938 13.5625 -10.484375 C 14.507812 -10.140625 15.320312 -9.582031 16 -8.8125 C 16.675781 -8.050781 17.015625 -7.019531 17.015625 -5.71875 C 17.015625 -4.601562 16.703125 -3.582031 16.078125 -2.65625 C 15.460938 -1.738281 14.53125 -1.007812 13.28125 -0.46875 C 12.03125 0.0625 10.515625 0.328125 8.734375 0.328125 Z M 8.734375 0.328125 "/></g></g></g><g fill="#378abd" fill-opacity="1"><g transform="translate(152.942012, 89.487339)"><g><path d="M 11 0.328125 C 8.207031 0.328125 6.035156 -0.441406 4.484375 -1.984375 C 2.929688 -3.523438 2.15625 -5.726562 2.15625 -8.59375 L 2.15625 -19.53125 L 6.671875 -19.53125 L 6.671875 -8.765625 C 6.671875 -5.265625 8.117188 -3.515625 11.015625 -3.515625 C 12.429688 -3.515625 13.507812 -3.9375 14.25 -4.78125 C 15 -5.632812 15.375 -6.960938 15.375 -8.765625 L 15.375 -19.53125 L 19.84375 -19.53125 L 19.84375 -8.59375 C 19.84375 -5.726562 19.066406 -3.523438 17.515625 -1.984375 C 15.960938 -0.441406 13.789062 0.328125 11 0.328125 Z M 11 0.328125 "/></g></g></g><g fill="#378abd" fill-opacity="1"><g transform="translate(174.926403, 89.487339)"><g><path d="M 10.765625 -19.53125 C 12.492188 -19.53125 13.992188 -19.238281 15.265625 -18.65625 C 16.546875 -18.082031 17.53125 -17.265625 18.21875 -16.203125 C 18.90625 -15.148438 19.25 -13.898438 19.25 -12.453125 C 19.25 -11.015625 18.90625 -9.757812 18.21875 -8.6875 C 17.53125 -7.625 16.546875 -6.804688 15.265625 -6.234375 C 13.992188 -5.671875 12.492188 -5.390625 10.765625 -5.390625 L 6.84375 -5.390625 L 6.84375 0 L 2.3125 0 L 2.3125 -19.53125 Z M 10.515625 -9.0625 C 11.878906 -9.0625 12.910156 -9.351562 13.609375 -9.9375 C 14.316406 -10.53125 14.671875 -11.367188 14.671875 -12.453125 C 14.671875 -13.546875 14.316406 -14.382812 13.609375 -14.96875 C 12.910156 -15.550781 11.878906 -15.84375 10.515625 -15.84375 L 6.84375 -15.84375 L 6.84375 -9.0625 Z M 10.515625 -9.0625 "/></g></g></g><g fill="#378abd" fill-opacity="1"><g transform="translate(195.348454, 89.487339)"><g><path d="M 17.4375 -3.625 L 17.4375 0 L 2.3125 0 L 2.3125 -19.53125 L 17.078125 -19.53125 L 17.078125 -15.90625 L 6.8125 -15.90625 L 6.8125 -11.671875 L 15.875 -11.671875 L 15.875 -8.15625 L 6.8125 -8.15625 L 6.8125 -3.625 Z M 17.4375 -3.625 "/></g></g></g><g fill="#378abd" fill-opacity="1"><g transform="translate(214.068668, 89.487339)"><g><path d="M 14.765625 0 L 11 -5.4375 L 6.84375 -5.4375 L 6.84375 0 L 2.3125 0 L 2.3125 -19.53125 L 10.765625 -19.53125 C 12.492188 -19.53125 13.992188 -19.238281 15.265625 -18.65625 C 16.546875 -18.082031 17.53125 -17.265625 18.21875 -16.203125 C 18.90625 -15.148438 19.25 -13.898438 19.25 -12.453125 C 19.25 -10.992188 18.898438 -9.738281 18.203125 -8.6875 C 17.503906 -7.632812 16.515625 -6.832031 15.234375 -6.28125 L 19.625 0 Z M 14.671875 -12.453125 C 14.671875 -13.546875 14.316406 -14.382812 13.609375 -14.96875 C 12.910156 -15.550781 11.878906 -15.84375 10.515625 -15.84375 L 6.84375 -15.84375 L 6.84375 -9.046875 L 10.515625 -9.046875 C 11.878906 -9.046875 12.910156 -9.34375 13.609375 -9.9375 C 14.316406 -10.53125 14.671875 -11.367188 14.671875 -12.453125 Z M 14.671875 -12.453125 "/></g></g></g><g fill="#000000" fill-opacity="1"><g transform="translate(135.132972, 117.140983)"><g><path d="M 14.765625 0 L 11 -5.4375 L 6.84375 -5.4375 L 6.84375 0 L 2.3125 0 L 2.3125 -19.53125 L 10.765625 -19.53125 C 12.492188 -19.53125 13.992188 -19.238281 15.265625 -18.65625 C 16.546875 -18.082031 17.53125 -17.265625 18.21875 -16.203125 C 18.90625 -15.148438 19.25 -13.898438 19.25 -12.453125 C 19.25 -10.992188 18.898438 -9.738281 18.203125 -8.6875 C 17.503906 -7.632812 16.515625 -6.832031 15.234375 -6.28125 L 19.625 0 Z M 14.671875 -12.453125 C 14.671875 -13.546875 14.316406 -14.382812 13.609375 -14.96875 C 12.910156 -15.550781 11.878906 -15.84375 10.515625 -15.84375 L 6.84375 -15.84375 L 6.84375 -9.046875 L 10.515625 -9.046875 C 11.878906 -9.046875 12.910156 -9.34375 13.609375 -9.9375 C 14.316406 -10.53125 14.671875 -11.367188 14.671875 -12.453125 Z M 14.671875 -12.453125 "/></g></g></g><g fill="#378abd" fill-opacity="1"><g transform="translate(155.639644, 117.140983)"><g><path d="M 17.4375 -3.625 L 17.4375 0 L 2.3125 0 L 2.3125 -19.53125 L 17.078125 -19.53125 L 17.078125 -15.90625 L 6.8125 -15.90625 L 6.8125 -11.671875 L 15.875 -11.671875 L 15.875 -8.15625 L 6.8125 -8.15625 L 6.8125 -3.625 Z M 17.4375 -3.625 "/></g></g></g><g fill="#378abd" fill-opacity="1"><g transform="translate(174.359857, 117.140983)"><g><path d="M 2.3125 -19.53125 L 6.84375 -19.53125 L 6.84375 0 L 2.3125 0 Z M 2.3125 -19.53125 "/></g></g></g><g fill="#378abd" fill-opacity="1"><g transform="translate(183.510722, 117.140983)"><g><path d="M 20.234375 -19.53125 L 20.234375 0 L 16.515625 0 L 6.78125 -11.859375 L 6.78125 0 L 2.3125 0 L 2.3125 -19.53125 L 6.0625 -19.53125 L 15.765625 -7.671875 L 15.765625 -19.53125 Z M 20.234375 -19.53125 "/></g></g></g><g fill="#378abd" fill-opacity="1"><g transform="translate(206.053094, 117.140983)"><g><path d="M 2.3125 -19.53125 L 6.84375 -19.53125 L 6.84375 0 L 2.3125 0 Z M 2.3125 -19.53125 "/></g></g></g><g fill="#378abd" fill-opacity="1"><g transform="translate(215.203959, 117.140983)"><g><path d="M 15.515625 -10.078125 L 19.640625 -10.078125 L 19.640625 -2.15625 C 18.585938 -1.351562 17.363281 -0.738281 15.96875 -0.3125 C 14.570312 0.113281 13.164062 0.328125 11.75 0.328125 C 9.71875 0.328125 7.890625 -0.101562 6.265625 -0.96875 C 4.648438 -1.832031 3.382812 -3.03125 2.46875 -4.5625 C 1.550781 -6.09375 1.09375 -7.828125 1.09375 -9.765625 C 1.09375 -11.703125 1.550781 -13.4375 2.46875 -14.96875 C 3.382812 -16.507812 4.660156 -17.710938 6.296875 -18.578125 C 7.941406 -19.441406 9.785156 -19.875 11.828125 -19.875 C 13.546875 -19.875 15.097656 -19.582031 16.484375 -19 C 17.878906 -18.425781 19.054688 -17.59375 20.015625 -16.5 L 17.109375 -13.8125 C 15.710938 -15.28125 14.03125 -16.015625 12.0625 -16.015625 C 10.8125 -16.015625 9.703125 -15.753906 8.734375 -15.234375 C 7.765625 -14.710938 7.007812 -13.976562 6.46875 -13.03125 C 5.9375 -12.082031 5.671875 -10.992188 5.671875 -9.765625 C 5.671875 -8.554688 5.9375 -7.476562 6.46875 -6.53125 C 7.007812 -5.582031 7.757812 -4.84375 8.71875 -4.3125 C 9.675781 -3.78125 10.769531 -3.515625 12 -3.515625 C 13.300781 -3.515625 14.472656 -3.796875 15.515625 -4.359375 Z M 15.515625 -10.078125 "/></g></g></g><g fill="#378abd" fill-opacity="1"><g transform="translate(236.714066, 117.140983)"><g><path d="M 11 0.328125 C 8.207031 0.328125 6.035156 -0.441406 4.484375 -1.984375 C 2.929688 -3.523438 2.15625 -5.726562 2.15625 -8.59375 L 2.15625 -19.53125 L 6.671875 -19.53125 L 6.671875 -8.765625 C 6.671875 -5.265625 8.117188 -3.515625 11.015625 -3.515625 C 12.429688 -3.515625 13.507812 -3.9375 14.25 -4.78125 C 15 -5.632812 15.375 -6.960938 15.375 -8.765625 L 15.375 -19.53125 L 19.84375 -19.53125 L 19.84375 -8.59375 C 19.84375 -5.726562 19.066406 -3.523438 17.515625 -1.984375 C 15.960938 -0.441406 13.789062 0.328125 11 0.328125 Z M 11 0.328125 "/></g></g></g><g fill="#378abd" fill-opacity="1"><g transform="translate(258.698457, 117.140983)"><g><path d="M 20.234375 -19.53125 L 20.234375 0 L 16.515625 0 L 6.78125 -11.859375 L 6.78125 0 L 2.3125 0 L 2.3125 -19.53125 L 6.0625 -19.53125 L 15.765625 -7.671875 L 15.765625 -19.53125 Z M 20.234375 -19.53125 "/></g></g></g><g fill="#378abd" fill-opacity="1"><g transform="translate(281.240828, 117.140983)"><g><path d="M 15.515625 -10.078125 L 19.640625 -10.078125 L 19.640625 -2.15625 C 18.585938 -1.351562 17.363281 -0.738281 15.96875 -0.3125 C 14.570312 0.113281 13.164062 0.328125 11.75 0.328125 C 9.71875 0.328125 7.890625 -0.101562 6.265625 -0.96875 C 4.648438 -1.832031 3.382812 -3.03125 2.46875 -4.5625 C 1.550781 -6.09375 1.09375 -7.828125 1.09375 -9.765625 C 1.09375 -11.703125 1.550781 -13.4375 2.46875 -14.96875 C 3.382812 -16.507812 4.660156 -17.710938 6.296875 -18.578125 C 7.941406 -19.441406 9.785156 -19.875 11.828125 -19.875 C 13.546875 -19.875 15.097656 -19.582031 16.484375 -19 C 17.878906 -18.425781 19.054688 -17.59375 20.015625 -16.5 L 17.109375 -13.8125 C 15.710938 -15.28125 14.03125 -16.015625 12.0625 -16.015625 C 10.8125 -16.015625 9.703125 -15.753906 8.734375 -15.234375 C 7.765625 -14.710938 7.007812 -13.976562 6.46875 -13.03125 C 5.9375 -12.082031 5.671875 -10.992188 5.671875 -9.765625 C 5.671875 -8.554688 5.9375 -7.476562 6.46875 -6.53125 C 7.007812 -5.582031 7.757812 -4.84375 8.71875 -4.3125 C 9.675781 -3.78125 10.769531 -3.515625 12 -3.515625 C 13.300781 -3.515625 14.472656 -3.796875 15.515625 -4.359375 Z M 15.515625 -10.078125 "/></g></g></g><g fill="#378abd" fill-opacity="1"><g transform="translate(302.750935, 117.140983)"><g><path d="M 8.734375 0.328125 C 7.191406 0.328125 5.695312 0.117188 4.25 -0.296875 C 2.8125 -0.710938 1.65625 -1.253906 0.78125 -1.921875 L 2.3125 -5.328125 C 3.15625 -4.710938 4.148438 -4.21875 5.296875 -3.84375 C 6.453125 -3.476562 7.609375 -3.296875 8.765625 -3.296875 C 10.046875 -3.296875 10.992188 -3.484375 11.609375 -3.859375 C 12.222656 -4.242188 12.53125 -4.753906 12.53125 -5.390625 C 12.53125 -5.847656 12.347656 -6.226562 11.984375 -6.53125 C 11.617188 -6.84375 11.148438 -7.09375 10.578125 -7.28125 C 10.015625 -7.46875 9.25 -7.671875 8.28125 -7.890625 C 6.800781 -8.242188 5.582031 -8.597656 4.625 -8.953125 C 3.675781 -9.304688 2.863281 -9.875 2.1875 -10.65625 C 1.507812 -11.4375 1.171875 -12.476562 1.171875 -13.78125 C 1.171875 -14.914062 1.476562 -15.941406 2.09375 -16.859375 C 2.707031 -17.785156 3.628906 -18.519531 4.859375 -19.0625 C 6.097656 -19.601562 7.613281 -19.875 9.40625 -19.875 C 10.65625 -19.875 11.875 -19.722656 13.0625 -19.421875 C 14.25 -19.117188 15.289062 -18.691406 16.1875 -18.140625 L 14.796875 -14.703125 C 12.984375 -15.722656 11.175781 -16.234375 9.375 -16.234375 C 8.113281 -16.234375 7.179688 -16.03125 6.578125 -15.625 C 5.972656 -15.21875 5.671875 -14.679688 5.671875 -14.015625 C 5.671875 -13.335938 6.019531 -12.835938 6.71875 -12.515625 C 7.414062 -12.191406 8.476562 -11.867188 9.90625 -11.546875 C 11.394531 -11.191406 12.613281 -10.835938 13.5625 -10.484375 C 14.507812 -10.140625 15.320312 -9.582031 16 -8.8125 C 16.675781 -8.050781 17.015625 -7.019531 17.015625 -5.71875 C 17.015625 -4.601562 16.703125 -3.582031 16.078125 -2.65625 C 15.460938 -1.738281 14.53125 -1.007812 13.28125 -0.46875 C 12.03125 0.0625 10.515625 0.328125 8.734375 0.328125 Z M 8.734375 0.328125 "/></g></g></g><g fill="#000000" fill-opacity="1"><g transform="translate(135.132972, 144.794627)"><g><path d="M 8.734375 0.328125 C 7.191406 0.328125 5.695312 0.117188 4.25 -0.296875 C 2.8125 -0.710938 1.65625 -1.253906 0.78125 -1.921875 L 2.3125 -5.328125 C 3.15625 -4.710938 4.148438 -4.21875 5.296875 -3.84375 C 6.453125 -3.476562 7.609375 -3.296875 8.765625 -3.296875 C 10.046875 -3.296875 10.992188 -3.484375 11.609375 -3.859375 C 12.222656 -4.242188 12.53125 -4.753906 12.53125 -5.390625 C 12.53125 -5.847656 12.347656 -6.226562 11.984375 -6.53125 C 11.617188 -6.84375 11.148438 -7.09375 10.578125 -7.28125 C 10.015625 -7.46875 9.25 -7.671875 8.28125 -7.890625 C 6.800781 -8.242188 5.582031 -8.597656 4.625 -8.953125 C 3.675781 -9.304688 2.863281 -9.875 2.1875 -10.65625 C 1.507812 -11.4375 1.171875 -12.476562 1.171875 -13.78125 C 1.171875 -14.914062 1.476562 -15.941406 2.09375 -16.859375 C 2.707031 -17.785156 3.628906 -18.519531 4.859375 -19.0625 C 6.097656 -19.601562 7.613281 -19.875 9.40625 -19.875 C 10.65625 -19.875 11.875 -19.722656 13.0625 -19.421875 C 14.25 -19.117188 15.289062 -18.691406 16.1875 -18.140625 L 14.796875 -14.703125 C 12.984375 -15.722656 11.175781 -16.234375 9.375 -16.234375 C 8.113281 -16.234375 7.179688 -16.03125 6.578125 -15.625 C 5.972656 -15.21875 5.671875 -14.679688 5.671875 -14.015625 C 5.671875 -13.335938 6.019531 -12.835938 6.71875 -12.515625 C 7.414062 -12.191406 8.476562 -11.867188 9.90625 -11.546875 C 11.394531 -11.191406 12.613281 -10.835938 13.5625 -10.484375 C 14.507812 -10.140625 15.320312 -9.582031 16 -8.8125 C 16.675781 -8.050781 17.015625 -7.019531 17.015625 -5.71875 C 17.015625 -4.601562 16.703125 -3.582031 16.078125 -2.65625 C 15.460938 -1.738281 14.53125 -1.007812 13.28125 -0.46875 C 12.03125 0.0625 10.515625 0.328125 8.734375 0.328125 Z M 8.734375 0.328125 "/></g></g></g><g fill="#378abd" fill-opacity="1"><g transform="translate(152.942012, 144.794627)"><g><path d="M 17.4375 -3.625 L 17.4375 0 L 2.3125 0 L 2.3125 -19.53125 L 17.078125 -19.53125 L 17.078125 -15.90625 L 6.8125 -15.90625 L 6.8125 -11.671875 L 15.875 -11.671875 L 15.875 -8.15625 L 6.8125 -8.15625 L 6.8125 -3.625 Z M 17.4375 -3.625 "/></g></g></g><g fill="#378abd" fill-opacity="1"><g transform="translate(171.662225, 144.794627)"><g><path d="M 14.765625 0 L 11 -5.4375 L 6.84375 -5.4375 L 6.84375 0 L 2.3125 0 L 2.3125 -19.53125 L 10.765625 -19.53125 C 12.492188 -19.53125 13.992188 -19.238281 15.265625 -18.65625 C 16.546875 -18.082031 17.53125 -17.265625 18.21875 -16.203125 C 18.90625 -15.148438 19.25 -13.898438 19.25 -12.453125 C 19.25 -10.992188 18.898438 -9.738281 18.203125 -8.6875 C 17.503906 -7.632812 16.515625 -6.832031 15.234375 -6.28125 L 19.625 0 Z M 14.671875 -12.453125 C 14.671875 -13.546875 14.316406 -14.382812 13.609375 -14.96875 C 12.910156 -15.550781 11.878906 -15.84375 10.515625 -15.84375 L 6.84375 -15.84375 L 6.84375 -9.046875 L 10.515625 -9.046875 C 11.878906 -9.046875 12.910156 -9.34375 13.609375 -9.9375 C 14.316406 -10.53125 14.671875 -11.367188 14.671875 -12.453125 Z M 14.671875 -12.453125 "/></g></g></g><g fill="#378abd" fill-opacity="1"><g transform="translate(192.167973, 144.794627)"><g><path d="M 21.09375 -19.53125 L 12.640625 0 L 8.171875 0 L -0.25 -19.53125 L 4.625 -19.53125 L 10.578125 -5.578125 L 16.609375 -19.53125 Z M 21.09375 -19.53125 "/></g></g></g><g fill="#378abd" fill-opacity="1"><g transform="translate(212.980601, 144.794627)"><g><path d="M 2.3125 -19.53125 L 6.84375 -19.53125 L 6.84375 0 L 2.3125 0 Z M 2.3125 -19.53125 "/></g></g></g><g fill="#378abd" fill-opacity="1"><g transform="translate(222.131466, 144.794627)"><g><path d="M 11.671875 0.328125 C 9.671875 0.328125 7.863281 -0.101562 6.25 -0.96875 C 4.644531 -1.832031 3.382812 -3.03125 2.46875 -4.5625 C 1.550781 -6.09375 1.09375 -7.828125 1.09375 -9.765625 C 1.09375 -11.703125 1.550781 -13.4375 2.46875 -14.96875 C 3.382812 -16.507812 4.644531 -17.710938 6.25 -18.578125 C 7.863281 -19.441406 9.675781 -19.875 11.6875 -19.875 C 13.382812 -19.875 14.914062 -19.570312 16.28125 -18.96875 C 17.644531 -18.375 18.796875 -17.519531 19.734375 -16.40625 L 16.828125 -13.734375 C 15.503906 -15.253906 13.867188 -16.015625 11.921875 -16.015625 C 10.710938 -16.015625 9.628906 -15.75 8.671875 -15.21875 C 7.722656 -14.6875 6.984375 -13.945312 6.453125 -13 C 5.929688 -12.050781 5.671875 -10.972656 5.671875 -9.765625 C 5.671875 -8.554688 5.929688 -7.476562 6.453125 -6.53125 C 6.984375 -5.582031 7.722656 -4.84375 8.671875 -4.3125 C 9.628906 -3.78125 10.710938 -3.515625 11.921875 -3.515625 C 13.867188 -3.515625 15.503906 -4.285156 16.828125 -5.828125 L 19.734375 -3.15625 C 18.796875 -2.019531 17.640625 -1.15625 16.265625 -0.5625 C 14.890625 0.03125 13.359375 0.328125 11.671875 0.328125 Z M 11.671875 0.328125 "/></g></g></g><g fill="#378abd" fill-opacity="1"><g transform="translate(242.581413, 144.794627)"><g><path d="M 17.4375 -3.625 L 17.4375 0 L 2.3125 0 L 2.3125 -19.53125 L 17.078125 -19.53125 L 17.078125 -15.90625 L 6.8125 -15.90625 L 6.8125 -11.671875 L 15.875 -11.671875 L 15.875 -8.15625 L 6.8125 -8.15625 L 6.8125 -3.625 Z M 17.4375 -3.625 "/></g></g></g></svg>